<svg width="66" height="64" viewBox="0 0 66 64" fill="none" xmlns="http://www.w3.org/2000/svg">
<path d="M32.999 0.176758C15.0527 0.176758 0.5 14.7839 0.5 32.8078C0.5 47.2221 9.81073 59.4526 22.73 63.7667C24.354 64.0676 24.9463 63.0601 24.9463 62.1941C24.9463 61.4204 24.918 59.3687 24.9023 56.645C15.8599 58.6191 13.9529 52.2711 13.9529 52.2711C12.4768 48.5011 10.3465 47.4999 10.3465 47.4999C7.39419 45.4744 10.5687 45.5132 10.5687 45.5132C13.8292 45.7428 15.5454 48.8775 15.5454 48.8775C18.4473 53.8636 23.1546 52.4221 25.006 51.5865C25.2985 49.4793 26.1404 48.0398 27.0682 47.2252C19.8532 46.4001 12.2671 43.603 12.2671 31.101C12.2671 27.5397 13.5325 24.6262 15.6115 22.3428C15.2749 21.5177 14.1605 18.2017 15.9281 13.7104C15.9281 13.7104 18.6581 12.8339 24.8656 17.0547C27.4582 16.3314 30.2385 15.9697 33.0031 15.955C35.7615 15.9697 38.5439 16.3303 41.1407 17.0547C47.343 12.8339 50.0688 13.7104 50.0688 13.7104C51.8406 18.2017 50.7261 21.5177 50.3906 22.3428C52.4748 24.6262 53.7329 27.5386 53.7329 31.101C53.7329 43.6345 46.1342 46.3918 38.894 47.2011C40.0609 48.2086 41.0998 50.1984 41.0998 53.244C41.0998 57.6074 41.061 61.1237 41.061 62.1941C41.061 63.0685 41.6471 64.0843 43.2952 63.7625C56.1977 59.44 65.5 47.2179 65.5 32.8078C65.5 14.7839 50.9473 0.176758 32.999 0.176758Z" fill="white"/>
</svg>
